<svg width="1096" height="330" viewBox="0 0 1096 330" fill="none" xmlns="http://www.w3.org/2000/svg">
<path d="M318.147 121.99C326.242 129.916 330.376 141.46 330.376 156.795V215.549C330.376 216.755 329.343 217.789 328.137 217.789H307.813C306.608 217.789 305.574 216.755 305.574 215.549V160.068C305.574 150.764 303.335 143.7 299.029 139.048C294.724 134.395 288.351 131.983 280.256 131.983C271.128 131.983 263.894 134.74 258.555 140.254C253.215 145.767 250.632 153.693 250.632 164.031V215.549C250.632 216.755 249.598 217.789 248.393 217.789H227.897C226.691 217.789 225.658 216.755 225.658 215.549V118.544C225.658 112.686 232.72 109.584 237.025 113.547L249.426 125.091C253.56 120.095 258.727 116.476 264.927 113.892C271.128 111.307 278.189 110.101 286.112 110.101C299.374 110.273 310.052 114.236 318.147 121.99Z" fill="#303030"/>
<path d="M378.257 212.448C369.473 207.795 362.584 201.248 357.761 192.978C352.766 184.707 350.355 175.231 350.355 164.721C350.355 154.21 352.766 144.906 357.761 136.635C362.756 128.365 369.473 121.99 378.257 117.338C387.041 112.686 396.858 110.273 408.053 110.273C418.56 110.273 427.688 112.341 435.611 116.649C442.845 120.611 448.528 125.953 452.49 133.017C453.006 134.051 452.662 135.429 451.629 135.946L436.128 144.906C435.094 145.423 433.888 145.251 433.2 144.217C430.272 140.081 426.827 136.98 422.866 134.912C418.215 132.5 413.22 131.294 407.881 131.294C398.581 131.294 390.83 134.396 384.802 140.426C378.774 146.457 375.674 154.555 375.674 164.721C375.674 174.886 378.774 182.984 384.802 189.015C390.83 195.045 398.581 198.147 408.053 198.147C413.565 198.147 418.56 196.941 423.038 194.528C426.999 192.288 430.616 189.187 433.372 185.224C434.061 184.363 435.266 184.018 436.3 184.535L451.629 193.494C452.662 194.184 453.006 195.39 452.49 196.596C448.356 203.66 442.672 209.174 435.439 213.137C427.516 217.444 418.387 219.684 408.053 219.684C396.858 219.34 387.041 217.1 378.257 212.448Z" fill="#303030"/>
<path d="M492.619 212.448C484.008 207.795 477.29 201.248 472.468 192.978C467.645 184.707 465.234 175.231 465.234 164.721C465.234 154.21 467.645 144.906 472.468 136.635C477.29 128.365 484.008 121.99 492.619 117.338C501.231 112.686 510.876 110.273 521.727 110.273C532.577 110.273 542.395 112.686 551.006 117.338C559.618 121.99 566.335 128.365 571.158 136.635C575.98 144.906 578.392 154.21 578.392 164.721C578.392 175.231 575.98 184.707 571.158 192.978C566.335 201.248 559.618 207.795 551.006 212.448C542.395 217.1 532.577 219.34 521.727 219.34C510.876 219.34 501.231 217.1 492.619 212.448ZM544.289 188.842C550.318 182.812 553.245 174.714 553.245 164.721C553.245 154.727 550.318 146.801 544.289 140.598C538.261 134.568 530.683 131.466 521.555 131.466C512.426 131.466 504.848 134.568 498.992 140.598C493.136 146.629 490.208 154.727 490.208 164.721C490.208 174.714 493.136 182.812 498.992 188.842C504.848 194.873 512.426 197.974 521.555 197.974C530.855 197.974 538.433 195.045 544.289 188.842Z" fill="#303030"/>
<path d="M621.106 217.961C622.311 217.961 623.345 216.927 623.345 215.721V155.761V154.21C623.345 146.801 625.584 141.632 630.062 137.669C634.54 133.706 640.051 131.639 648.835 131.639C648.835 131.639 652.969 131.639 657.447 132.155C658.825 132.328 660.03 131.294 660.03 129.916V113.892C660.03 112.858 659.169 111.824 658.136 111.652C654.002 110.962 649.007 110.446 644.529 110.446C629.373 110.446 619.211 114.236 610.772 121.645C602.504 129.226 598.371 140.426 598.371 155.588V215.721C598.371 216.927 599.404 217.961 600.61 217.961H621.106Z" fill="#303030"/>
<path d="M198.79 136.463C194.14 128.193 187.767 121.645 179.672 117.165C171.577 112.513 162.277 110.273 151.943 110.273C141.436 110.273 131.963 112.686 123.696 117.338C115.257 121.99 108.712 128.537 104.062 136.808C99.4113 145.078 97 154.382 97 164.893C97 175.403 99.4113 184.879 104.234 193.15C109.056 201.42 115.946 207.968 124.902 212.62C133.858 217.272 144.02 219.512 155.732 219.512C164.86 219.512 173.127 218.134 180.361 215.204C187.078 212.62 192.59 208.657 197.24 203.66C197.929 202.799 197.929 201.593 197.24 200.731L186.734 188.67C185.873 187.809 184.495 187.636 183.633 188.498C176.4 195.217 167.271 198.491 156.421 198.491C147.292 198.491 139.542 196.251 133.341 191.599C127.141 186.947 123.352 180.744 121.802 172.991H202.062C203.957 172.991 205.507 171.612 205.507 169.717C205.679 167.994 205.679 166.788 205.679 165.582C205.679 154.382 203.268 144.906 198.79 136.463ZM131.619 137.325C137.13 132.673 143.848 130.26 151.77 130.26C159.865 130.26 166.582 132.673 172.094 137.497C176.916 141.632 180.017 146.974 181.394 153.349H122.146C123.524 146.801 126.796 141.46 131.619 137.325Z" fill="#303030"/>
<path d="M742.531 217.961H760.96C762.166 217.961 763.199 216.927 763.199 215.721V155.588C763.199 140.426 759.066 129.054 750.798 121.645C742.531 114.064 728.236 109.929 712.563 109.929C702.573 109.929 696.2 110.618 689.311 111.652C688.278 111.824 687.417 112.858 687.417 113.892V129.916C687.417 131.294 688.622 132.328 690 132.156C699.645 130.777 721.174 128.193 731.508 137.152C735.986 141.115 738.225 146.801 738.225 154.382V155.933H710.668C695.339 155.933 684.144 158.862 677.082 164.548C670.021 170.406 666.404 177.987 666.404 187.636C666.404 193.667 667.954 199.18 671.227 204.005C674.499 208.829 679.149 212.62 685.005 215.377C691.033 218.133 697.923 219.512 706.018 219.512C716.007 219.512 730.475 215.721 740.12 206.072V215.893C740.292 216.927 741.326 217.961 742.531 217.961ZM738.398 188.842C733.747 196.079 720.83 201.248 711.529 201.248C705.157 201.248 700.162 199.869 696.545 197.285C692.928 194.7 691.206 191.082 691.206 186.602C691.206 177.126 698.439 172.474 712.735 172.474H738.398V188.842Z" fill="#303030"/>
<path d="M935.949 72.5393L919.415 134.568C915.97 147.49 923.721 160.93 936.638 164.376L998.642 180.916C1000.37 174.197 997.264 167.133 991.064 164.031L957.651 147.49C948.867 143.355 943.7 134.223 944.561 124.574L947.144 87.8741C947.489 80.8098 942.838 74.4346 935.949 72.5393Z" fill="#F5BC18"/>
<path d="M953.517 134.74C955.756 138.703 959.373 141.632 963.334 143.01C964.368 143.355 965.573 143.355 966.607 142.666L983.658 132.845C990.203 129.054 992.442 120.439 988.308 113.891C984.347 107.689 976.079 105.966 969.879 109.756L953.172 119.405C952.139 119.922 951.45 120.956 951.278 122.162C950.589 126.297 951.278 130.777 953.517 134.74Z" fill="#F5BC18"/>
<path d="M820.381 133.189L882.385 149.73C895.302 153.176 908.736 145.423 912.181 132.5L928.716 70.4718C921.998 68.7488 914.937 71.8502 911.837 78.0531L895.302 111.479C891.169 120.267 882.04 125.436 872.395 124.574L835.709 121.99C828.82 121.645 822.275 126.297 820.381 133.189Z" fill="#40C1EF"/>
<path d="M882.557 115.614C886.519 113.375 889.447 109.756 890.825 105.793C891.169 104.76 891.169 103.553 890.48 102.52L880.663 85.4619C876.874 78.9144 868.262 76.6745 861.717 80.8097C855.517 84.7727 853.794 93.0431 857.584 99.2459L867.229 115.959C867.745 116.993 868.779 117.682 869.984 117.854C874.118 118.716 878.596 118.027 882.557 115.614Z" fill="#40C1EF"/>
<path d="M881.179 248.286L897.714 186.258C901.158 173.335 893.408 159.896 880.49 156.45L818.486 139.909C816.764 146.629 819.864 153.693 826.064 156.794L859.478 173.335C868.262 177.47 873.429 186.602 872.567 196.251L869.984 232.951C869.639 239.843 874.29 246.391 881.179 248.286Z" fill="#8FC640"/>
<path d="M863.611 186.085C861.372 182.122 857.755 179.193 853.794 177.815C852.76 177.47 851.555 177.47 850.521 178.159L833.47 187.981C826.925 191.771 824.686 200.386 828.82 206.934C832.781 213.137 841.048 214.86 847.249 211.069L863.955 201.42C864.989 200.903 865.678 199.869 865.85 198.663C866.711 194.528 866.022 190.048 863.611 186.085Z" fill="#8FC640"/>
<path d="M996.748 187.636L934.744 171.095C921.826 167.65 908.392 175.403 904.947 188.325L888.413 250.354C895.13 252.077 902.191 248.975 905.292 242.772L921.826 209.346C925.96 200.559 935.088 195.39 944.733 196.251L981.419 198.836C988.48 199.18 994.853 194.528 996.748 187.636Z" fill="#F15A52"/>
<path d="M934.571 205.211C930.61 207.451 927.682 211.069 926.304 215.032C925.96 216.066 925.96 217.272 926.649 218.306L936.466 235.364C940.255 241.911 948.867 244.151 955.412 240.016C961.612 236.053 963.334 227.782 959.545 221.579L949.9 204.866C949.383 203.832 948.35 203.143 947.144 202.971C943.183 202.109 938.705 202.799 934.571 205.211Z" fill="#F15A52"/>
</svg>
